<svg xmlns="http://www.w3.org/2000/svg" xmlns:xlink="http://www.w3.org/1999/xlink" id="Layer_1" x="0" y="0" version="1.1" viewBox="0 0 2063.2 745" xml:space="preserve" style="enable-background:new 0 0 2063.2 745"><style type="text/css">.st0{fill:#ffd300}.st1{fill:#fff}.st2{stroke:#000;stroke-miterlimit:10}</style><g><path d="M214.1,202.8c-18.5,18.3-29.1,43.6-30.7,69.4c-16.3-18.8-36.9-33-57.9-46c-6.7,19.6-14,39.1-24.7,56.9 c25.5,5.8,52.9,7.5,76.4,19.8c-24.6,9.2-50.5,13.8-76.3,18.2c10.3,17.9,18.1,37.2,24.4,56.9c21.4-12.3,41.6-27.3,58.4-45.6 c0,47.9,0,95.7,0,143.6c0,15.9,3.9,31.8,11,46c16.8,33.9,52.9,57.3,90.9,57.9c66.4,0.4,132.9,0.1,199.3,0.2 c27.4,0.4,54.9-10,74.6-29.2c20.4-19.1,32.3-46.7,32.5-74.6c0-66.5,0-133,0-199.5c0-22.9-7.7-45.8-21.8-63.8 c-18.8-24.7-49.1-40.4-80.1-40.8c-67.3,0-134.5,0.1-201.8,0C260.6,171.6,233.4,183.2,214.1,202.8 M1402,176 c15.6-5.7,34.5-0.1,43.9,13.7c11.9,15.9,8.7,41.6-8,53c-18.3,13.4-47.8,7.2-57.3-14C1370.2,209.2,1381.2,182.8,1402,176 M262.7,249.6c6.5-1.6,13.2-2.8,20-2.9c69.1,0,138.2,0.1,207.3-0.1c17.8,0.1,36.1,5.5,49.4,17.8c14.9,12.9,23.1,32.6,22.8,52.3 c-0.2,21.3,0.2,42.7-0.2,64c-1,25.4-17.8,49.2-41.2,59c-30.4,12.1-65.4,0.3-90.5-18.5c-10.2-9.7-21.2-20-35.7-22.1 c-16-3.2-31.4,5.4-42.3,16.4c-20,18.8-47.3,30.7-75,29.2c-26.6-0.3-51.5-18.8-60.5-43.7c-6.7-17.6-3.5-36.8-4.3-55.1 c0.7-17.7-2.2-36,3.7-53C223.4,271.9,241.3,255.1,262.7,249.6 M286.6,286.2c-7.6,3.9-5.5,16.4,3,17.6c21.6,2.3,43.3,4.9,64.9,6.4 c10-0.5,11.2-16.5,1.4-18.4c-18.1-2.5-36.3-3.6-54.4-5.8C296.5,285.8,291.3,284.3,286.6,286.2 M464.9,286.8 c-15.8,2-31.8,2.6-47.5,5.2c-9,3.4-6.3,18.7,3.5,18.1c21.6-1.7,43.1-4.1,64.6-6.4c8.5-1.4,9.6-15.3,1.4-18 C479.7,284.5,472.2,286.3,464.9,286.8 M315.7,318.2c-8.8,2.1-16.3,8.8-19.7,17.1c-6.9,15.9,4.3,35.7,21.3,38.3 c16.6,3.6,33.8-10.8,33.3-27.8C351.2,328.2,332.7,313.6,315.7,318.2 M442.8,319.1c-8.7,3.1-15.7,10.8-17.9,19.8 c-4.5,16.3,8.3,34.4,25.3,35.1c16.8,1.8,32.4-14,30.3-30.7C479.6,325.4,459.4,312.6,442.8,319.1L442.8,319.1z M745,372.5 C745,578.2,578.2,745,372.5,745S0,578.2,0,372.5S166.8,0,372.5,0S745,166.8,745,372.5z" class="st0"/><path d="M1119.3,182.4c15.6-15.1,46.9-11,55,10.4c6.3,16.6,3.9,34.8,4.2,52.2c-0.1,96.5,0.1,193,0,289.5 c-1.6,10.6-0.2,22.2-6.6,31.5c-10.5,17.6-37.9,20.4-52.2,6c-10.7-9.7-12.4-25.2-12-38.9c-17.6,20.2-39.6,38.1-66.2,44.4 c-33,8.5-70,2.5-97.1-18.7c-32.1-24.2-48.5-64-53.1-102.9c-4.2-41.4-0.3-85.6,22.1-121.7c20.1,15.7,39.5,32.1,59.6,47.7 c-9.9,27.1-11.2,57.1-4.3,85.1c5,18.9,15.6,37.6,33,47.6c20.9,12.8,49.1,11.6,69.1-2.3c11.4-7.5,18.8-19.3,24.6-31.4 c27.6,22.2,55,44.8,82.9,66.5c-24.8-27.4-52.7-52-79.1-78c5.7-23,6-47.5,1-70.7c-5.5-23.1-19.7-45.8-42.3-55.4 c-24.4-10.9-55.1-3.7-72.1,17.1c-17.1-16.8-34.6-33.2-51.6-50c28.7-25.2,69.5-31.9,106.2-24.9c26.7,4.4,49.2,21.5,67.4,40.7 c-0.2-35.1-0.1-70.1-0.1-105.2C1107.6,207.4,1109.6,192.5,1119.3,182.4 M1264.7,175.1c13.1-3.5,28.6-1.4,38.4,8.7 c8.8,9,11,22.2,11.2,34.3c0.1,105.5-0.1,210.9,0.1,316.4c-0.2,11.8-1.5,24.7-9.5,34c-12.8,15.9-39.9,17.2-53.8,2.1 c-8.6-8.8-11.3-21.6-11.2-33.5c0-107.1-0.1-214.3,0.1-321.4C1239.3,199,1247.4,180,1264.7,175.1 M1879.7,288 c44.6-12,96.1-8.2,133.9,20.2c27.7,19.9,44.8,52.3,48.8,85.9c0.2-1,0.7-3.1,0.9-4.1v23.9c-2.4,10.2-5.4,22.1-15.4,27.4 c-17.2,9.2-37.4,9.1-56.4,9c-44.3,0.1-88.5-0.3-132.8,0.2c0.5,25.2,9.6,51.7,30.3,67.5c18.4,14.2,43.7,16.3,65.7,10.3 c24-7.3,41.9-25.9,59.9-42.4c7.9-7.8,20.6-7.9,30.5-4.3c11.3,4.2,15.9,17.9,12.7,28.9c-6.1,22.7-24.6,39.8-44.3,51.1 c-41.2,22.7-91.6,24.3-136.2,11.9c-42.1-11.7-76-46.9-87.4-88.9c-11.9-43.7-9.7-92.5,10.9-133.2C1816.2,320.1,1846,297,1879.7,288 M1880.7,351.9c-14.3,14.8-20,35.8-21.9,55.8c44,0,87.9,0,131.8,0c-1.5-17-4.9-34.6-14.9-48.8 C1955.2,328.4,1905.5,325,1880.7,351.9 M1402.6,284.2c13.7-4.2,30.2-1.1,39.9,10c7.4,8.2,9.9,19.6,10,30.4c0,64.6,0,129.3,0,193.9 c-0.2,16.2,1.9,34.3-8.2,48.2c-11.7,16.9-38.8,19.7-53.7,5.4c-9.6-8.7-12.7-22.2-12.5-34.8c-0.1-68.2,0-136.4-0.1-204.6 C1376.3,313.8,1382.2,290.2,1402.6,284.2 M1496.2,302c9.3-19.6,38-26.2,54.7-12.5c9.6,11.3,13.4,26.1,18.6,39.6 c17.4,48.8,34.9,97.7,52.3,146.5c1.9,5.7,3.7,11.4,6.7,16.6c21.2-58.3,42.9-116.4,64.2-174.6c4.4-10.6,8.4-22.2,17.2-29.9 c15-10.2,37.8-5.7,47.8,9.6c8.4,11.3,5,26.4,0.2,38.5c-24.8,61.3-49.6,122.7-74.4,184c-7.3,16.7-12,35.2-24.4,49 c-10.8,11.9-28.3,14.4-43.3,11.1c-14.4-3.5-25-15.8-30.4-29.2c-18.9-42.9-35.6-86.8-53.5-130.1c-11.1-27.7-22.8-55.2-33.4-83.2 C1494.3,326.3,1489.9,313.1,1496.2,302" class="st1"/></g><path d="M488.2,171.5H288.1c-56.7,0-103.3,45.7-104.7,102.2c-15.4-18.5-36.7-33.1-57.3-46.4c-0.2-0.1-0.4-0.2-0.6-0.2	c-0.3,0-0.5,0-0.8,0.1c-0.5,0.2-0.8,0.5-0.9,1c-5.7,18.5-13.3,36.6-22.8,53.5c-0.2,0.4-0.3,1,0,1.4c0.2,0.4,0.7,0.8,1.2,0.8	c26.3,2.8,52.2,8.9,77,18.4c-24.8,9.4-50.7,15.6-77,18.4c-0.5,0-1,0.3-1.2,0.8c-0.2,0.4-0.2,1,0,1.4c9.4,16.9,17.1,35,22.8,53.5	c0.1,0.5,0.5,0.8,0.9,1c0.3,0.1,0.5,0.1,0.8,0.1c0.2,0,0.4-0.1,0.6-0.2c20.5-13.2,41.8-27.8,57.2-46.3v145.6	c0,57.6,47.1,104.8,104.8,104.8h200.1c57.6,0,104.8-47.1,104.8-104.8V276.2C592.9,218.6,545.8,171.5,488.2,171.5"/><path d="M562.3,381c0,37.1-30.4,67.5-67.5,67.5h-216c-37.1,0-67.5-30.4-67.5-67.5v-63.4c0-37.1,30.4-67.5,67.5-67.5h216	c37.1,0,67.5,30.4,67.5,67.5V381z" class="st0"/><path d="M350.6,349.6c0,15.4-12.5,27.9-27.9,27.9c-15.4,0-27.9-12.5-27.9-27.9c0-15.4,12.5-27.9,27.9-27.9	C338.1,321.7,350.6,334.2,350.6,349.6" class="st2"/><path d="M481.4,349.6c0,15.4-12.5,27.9-27.9,27.9c-15.4,0-27.9-12.5-27.9-27.9c0-15.4,12.5-27.9,27.9-27.9	C468.9,321.7,481.4,334.2,481.4,349.6" class="st2"/><path d="M483.6,289c5-0.5,9.4,2.9,10,8c0.5,5-3.1,9.5-8.1,10l-62,6.3c-5.1,0.5-9.3-3.1-9.8-8.2c-0.5-4.9,3-9.3,8-9.8	L483.6,289z" class="st2"/><path d="M354.8,295.3c5,0.5,8.5,4.9,8,9.8c-0.5,5-4.8,8.7-9.8,8.2l-62.1-6.3c-5.1-0.5-8.7-4.9-8.1-10	c0.5-5,4.9-8.5,10-8L354.8,295.3z" class="st2"/><path d="M278.3,449.6c0,0,40.6,3.9,76.9-31.1s68.7,0,68.7,0s26.7,30.8,80.6,31.5L278.3,449.6z"/></svg>